<svg width="141" height="64" viewBox="0 0 141 64" fill="none" xmlns="http://www.w3.org/2000/svg">
<path d="M23.0481 61.6538L43.9983 3.35571L64.625 61.6538" stroke="white" stroke-width="3" stroke-linecap="round" stroke-linejoin="round"/>
<path d="M70.9519 45.1587L86.4791 2" stroke="white" stroke-width="3" stroke-linecap="round" stroke-linejoin="round"/>
<path d="M28.4712 61.4279L43.9984 18.2693" stroke="white" stroke-width="3" stroke-linecap="round" stroke-linejoin="round"/>
<path d="M92.6443 3.35574L71.694 61.6538L51.0674 3.35574" stroke="white" stroke-width="3" stroke-linecap="round" stroke-linejoin="round"/>
<path d="M92.8701 3.35571H119.082" stroke="white" stroke-width="3" stroke-linecap="round" stroke-linejoin="round"/>
<path d="M71.8557 61.6538H98.0673" stroke="white" stroke-width="3" stroke-linecap="round" stroke-linejoin="round"/>
<path d="M81.7981 32.7307H108.01" stroke="white" stroke-width="3" stroke-linecap="round" stroke-linejoin="round"/>
<path d="M12.12 39.193L1.68 35.017V33.433L12.12 29.257V30.745L2.304 34.609V33.841L12.12 37.705V39.193Z" fill="white"/>
<path d="M113.736 45.025L121.656 22.417H123.216L115.296 45.025H113.736ZM124.055 39.193V37.705L133.871 33.841V34.609L124.055 30.745V29.257L134.495 33.433V35.017L124.055 39.193Z" fill="white"/>
</svg>
